# MagicaVoxel @ Ephtracy

# group
o 

# material
mtllib Правая рука синяя.mtl
usemtl palette

# normals
vn -1 0 0
vn 1 0 0
vn 0 0 1
vn 0 0 -1
vn 0 -1 0
vn 0 1 0

# texcoords
vt 0.916016 0.5
vt 0.962891 0.5
vt 0.974609 0.5
vt 0.978516 0.5
vt 0.986328 0.5

# verts
v 10.1 2.9 0.7
v 10.1 2.9 -0.7
v 10.1 3.2 0.7
v 10.1 3.2 -0.7
v 10.2 2.9 0.8
v 10.2 2.9 0.7
v 10.2 2.9 -0.7
v 10.2 2.9 -0.8
v 10.2 3.2 0.8
v 10.2 3.2 0.7
v 10.2 3.2 -0.7
v 10.2 3.2 -0.8
v 10.2 7.7 0.2
v 10.2 7.7 -0.2
v 10.2 7.8 0.3
v 10.2 7.8 0.2
v 10.2 7.8 0.1
v 10.2 7.8 -0.1
v 10.2 7.8 -0.2
v 10.2 7.8 -0.3
v 10.2 7.9 0.4
v 10.2 7.9 0.3
v 10.2 7.9 0.2
v 10.2 7.9 0.1
v 10.2 7.9 -0.1
v 10.2 7.9 -0.2
v 10.2 7.9 -0.3
v 10.2 7.9 -0.4
v 10.2 8 0.4
v 10.2 8 0.2
v 10.2 8 -0.2
v 10.2 8 -0.4
v 10.2 8.1 0.2
v 10.2 8.1 -0.2
v 10.2 8.2 0.3
v 10.2 8.2 0.2
v 10.2 8.2 0.1
v 10.2 8.2 -0.1
v 10.2 8.2 -0.2
v 10.2 8.2 -0.3
v 10.2 8.3 0.4
v 10.2 8.3 0.3
v 10.2 8.3 0.2
v 10.2 8.3 0.1
v 10.2 8.3 -0.1
v 10.2 8.3 -0.2
v 10.2 8.3 -0.3
v 10.2 8.3 -0.4
v 10.2 8.4 0.4
v 10.2 8.4 0.2
v 10.2 8.4 -0.2
v 10.2 8.4 -0.4
v 10.2 8.5 0.2
v 10.2 8.5 -0.2
v 10.2 8.6 0.3
v 10.2 8.6 0.2
v 10.2 8.6 0.1
v 10.2 8.6 -0.1
v 10.2 8.6 -0.2
v 10.2 8.6 -0.3
v 10.2 8.7 0.4
v 10.2 8.7 0.3
v 10.2 8.7 0.2
v 10.2 8.7 0.1
v 10.2 8.7 -0.1
v 10.2 8.7 -0.2
v 10.2 8.7 -0.3
v 10.2 8.7 -0.4
v 10.2 8.8 0.4
v 10.2 8.8 0.2
v 10.2 8.8 -0.2
v 10.2 8.8 -0.4
v 10.2 9.7 0.7
v 10.2 9.7 -0.7
v 10.3 1.7 0.7
v 10.3 1.7 -0.7
v 10.3 2.9 0.9
v 10.3 2.9 0.8
v 10.3 2.9 0.7
v 10.3 2.9 -0.7
v 10.3 2.9 -0.8
v 10.3 2.9 -0.9
v 10.3 3.2 0.9
v 10.3 3.2 0.8
v 10.3 3.2 0.7
v 10.3 3.2 -0.7
v 10.3 3.2 -0.8
v 10.3 3.2 -0.9
v 10.3 9.7 0.7
v 10.3 9.7 -0.7
v 10.3 9.8 0.8
v 10.3 9.8 -0.8
v 10.4 1.6 0.7
v 10.4 1.6 -0.7
v 10.4 1.7 0.7
v 10.4 1.7 -0.7
v 10.4 9.8 0.8
v 10.4 9.8 -0.8
v 10.4 9.9 0.8
v 10.4 9.9 -0.8
v 10.5 9.9 0.7
v 10.5 9.9 -0.7
v 10.5 10 0.7
v 10.5 10 -0.7
v 11.5 2.9 0.7
v 11.5 2.9 -0.7
v 11.5 3.7 0.7
v 11.5 3.7 -0.7
v 11.2 2.6 0.7
v 11.2 2.6 -0.7
v 11.2 2.9 0.7
v 11.2 2.9 -0.7
v 11.2 3.7 0.7
v 11.2 3.7 -0.7
v 11.5 1.6 0.7
v 11.5 1.6 -0.7
v 11.5 2.6 0.7
v 11.5 2.6 -0.7
v 11.5 2.9 0.9
v 11.5 2.9 0.8
v 11.5 2.9 -0.8
v 11.5 2.9 -0.9
v 11.5 3.2 0.9
v 11.5 3.2 0.8
v 11.5 3.2 0.7
v 11.5 3.2 -0.7
v 11.5 3.2 -0.8
v 11.5 3.2 -0.9
v 11.5 9.9 0.8
v 11.5 9.9 0.7
v 11.5 9.9 -0.7
v 11.5 9.9 -0.8
v 11.5 10 0.7
v 11.5 10 -0.7
v 11.6 2.9 0.8
v 11.6 2.9 0.7
v 11.6 2.9 -0.7
v 11.6 2.9 -0.8
v 11.6 3.2 0.8
v 11.6 3.2 0.7
v 11.6 3.2 -0.7
v 11.6 3.2 -0.8
v 11.6 8.9 0.6
v 11.6 8.9 -0.6
v 11.6 9.8 0.6
v 11.6 9.8 -0.6
v 11.6 9.9 0.7
v 11.6 9.9 -0.7
v 11.7 2.9 0.7
v 11.7 2.9 -0.7
v 11.7 3.2 0.7
v 11.7 3.2 -0.7
v 11.7 8.9 0.6
v 11.7 8.9 -0.6
v 11.7 9.8 0.6
v 11.7 9.8 -0.6
v 10.3 2.9 0.9
v 10.3 3.2 0.9
v 11.5 2.9 0.9
v 11.5 3.2 0.9
v 10.2 2.9 0.8
v 10.2 3.2 0.8
v 10.3 2.9 0.8
v 10.3 3.2 0.8
v 10.3 9.8 0.8
v 10.4 9.8 0.8
v 10.4 9.9 0.8
v 11.5 2.9 0.8
v 11.5 3.2 0.8
v 11.5 9.9 0.8
v 11.6 2.9 0.8
v 11.6 3.2 0.8
v 10.1 2.9 0.7
v 10.1 3.2 0.7
v 10.2 2.9 0.7
v 10.2 3.2 0.7
v 10.2 9.7 0.7
v 10.3 1.7 0.7
v 10.3 2.9 0.7
v 10.3 3.2 0.7
v 10.3 9.7 0.7
v 10.4 1.6 0.7
v 10.4 1.7 0.7
v 10.5 9.9 0.7
v 10.5 10 0.7
v 11.2 2.6 0.7
v 11.2 2.9 0.7
v 11.5 1.6 0.7
v 11.5 2.6 0.7
v 11.5 3.2 0.7
v 11.5 9.9 0.7
v 11.5 10 0.7
v 11.6 2.9 0.7
v 11.6 3.2 0.7
v 11.6 9.9 0.7
v 11.7 2.9 0.7
v 11.7 3.2 0.7
v 11.6 8.9 0.6
v 11.6 9.8 0.6
v 11.7 8.9 0.6
v 11.7 9.8 0.6
v 11.2 2.9 -0.7
v 11.2 3.7 -0.7
v 11.5 2.9 -0.7
v 11.5 3.7 -0.7
v 11.2 2.9 0.7
v 11.2 3.7 0.7
v 11.5 2.9 0.7
v 11.5 3.7 0.7
v 11.6 8.9 -0.6
v 11.6 9.8 -0.6
v 11.7 8.9 -0.6
v 11.7 9.8 -0.6
v 10.1 2.9 -0.7
v 10.1 3.2 -0.7
v 10.2 2.9 -0.7
v 10.2 3.2 -0.7
v 10.2 9.7 -0.7
v 10.3 1.7 -0.7
v 10.3 2.9 -0.7
v 10.3 3.2 -0.7
v 10.3 9.7 -0.7
v 10.4 1.6 -0.7
v 10.4 1.7 -0.7
v 10.5 9.9 -0.7
v 10.5 10 -0.7
v 11.2 2.6 -0.7
v 11.2 2.9 -0.7
v 11.5 1.6 -0.7
v 11.5 2.6 -0.7
v 11.5 3.2 -0.7
v 11.5 9.9 -0.7
v 11.5 10 -0.7
v 11.6 2.9 -0.7
v 11.6 3.2 -0.7
v 11.6 9.9 -0.7
v 11.7 2.9 -0.7
v 11.7 3.2 -0.7
v 10.2 2.9 -0.8
v 10.2 3.2 -0.8
v 10.3 2.9 -0.8
v 10.3 3.2 -0.8
v 10.3 9.8 -0.8
v 10.4 9.8 -0.8
v 10.4 9.9 -0.8
v 11.5 2.9 -0.8
v 11.5 3.2 -0.8
v 11.5 9.9 -0.8
v 11.6 2.9 -0.8
v 11.6 3.2 -0.8
v 10.3 2.9 -0.9
v 10.3 3.2 -0.9
v 11.5 2.9 -0.9
v 11.5 3.2 -0.9
v 10.4 1.6 0.7
v 11.5 1.6 0.7
v 10.4 1.6 -0.7
v 11.5 1.6 -0.7
v 10.3 1.7 0.7
v 10.4 1.7 0.7
v 10.3 1.7 -0.7
v 10.4 1.7 -0.7
v 10.3 2.9 0.9
v 11.5 2.9 0.9
v 10.2 2.9 0.8
v 10.3 2.9 0.8
v 11.5 2.9 0.8
v 11.6 2.9 0.8
v 10.1 2.9 0.7
v 10.2 2.9 0.7
v 10.3 2.9 0.7
v 11.2 2.9 0.7
v 11.5 2.9 0.7
v 11.6 2.9 0.7
v 11.7 2.9 0.7
v 10.1 2.9 -0.7
v 10.2 2.9 -0.7
v 10.3 2.9 -0.7
v 11.2 2.9 -0.7
v 11.5 2.9 -0.7
v 11.6 2.9 -0.7
v 11.7 2.9 -0.7
v 10.2 2.9 -0.8
v 10.3 2.9 -0.8
v 11.5 2.9 -0.8
v 11.6 2.9 -0.8
v 10.3 2.9 -0.9
v 11.5 2.9 -0.9
v 11.2 3.7 0.7
v 11.5 3.7 0.7
v 11.2 3.7 -0.7
v 11.5 3.7 -0.7
v 11.6 8.9 0.6
v 11.7 8.9 0.6
v 11.6 8.9 -0.6
v 11.7 8.9 -0.6
v 11.2 2.6 0.7
v 11.5 2.6 0.7
v 11.2 2.6 -0.7
v 11.5 2.6 -0.7
v 10.3 3.2 0.9
v 11.5 3.2 0.9
v 10.2 3.2 0.8
v 10.3 3.2 0.8
v 11.5 3.2 0.8
v 11.6 3.2 0.8
v 10.1 3.2 0.7
v 10.2 3.2 0.7
v 10.3 3.2 0.7
v 11.5 3.2 0.7
v 11.6 3.2 0.7
v 11.7 3.2 0.7
v 10.1 3.2 -0.7
v 10.2 3.2 -0.7
v 10.3 3.2 -0.7
v 11.5 3.2 -0.7
v 11.6 3.2 -0.7
v 11.7 3.2 -0.7
v 10.2 3.2 -0.8
v 10.3 3.2 -0.8
v 11.5 3.2 -0.8
v 11.6 3.2 -0.8
v 10.3 3.2 -0.9
v 11.5 3.2 -0.9
v 10.2 9.7 0.7
v 10.3 9.7 0.7
v 10.2 9.7 -0.7
v 10.3 9.7 -0.7
v 10.3 9.8 0.8
v 10.4 9.8 0.8
v 11.6 9.8 0.6
v 11.7 9.8 0.6
v 11.6 9.8 -0.6
v 11.7 9.8 -0.6
v 10.3 9.8 -0.8
v 10.4 9.8 -0.8
v 10.4 9.9 0.8
v 11.5 9.9 0.8
v 10.5 9.9 0.7
v 11.5 9.9 0.7
v 11.6 9.9 0.7
v 10.5 9.9 -0.7
v 11.5 9.9 -0.7
v 11.6 9.9 -0.7
v 10.4 9.9 -0.8
v 11.5 9.9 -0.8
v 10.5 10 0.7
v 11.5 10 0.7
v 10.5 10 -0.7
v 11.5 10 -0.7

# faces
f 3/3/1 2/3/1 1/3/1
f 4/3/1 2/3/1 3/3/1
f 9/3/1 6/3/1 5/3/1
f 10/3/1 6/3/1 9/3/1
f 11/3/1 8/3/1 7/3/1
f 12/3/1 8/3/1 11/3/1
f 13/3/1 11/3/1 10/3/1
f 14/3/1 11/3/1 13/3/1
f 15/3/1 13/3/1 10/3/1
f 16/1/1 14/1/1 13/1/1
f 16/3/1 13/3/1 15/3/1
f 17/1/1 14/1/1 16/1/1
f 18/1/1 14/1/1 17/1/1
f 19/3/1 11/3/1 14/3/1
f 19/1/1 14/1/1 18/1/1
f 20/3/1 11/3/1 19/3/1
f 21/3/1 15/3/1 10/3/1
f 22/1/1 16/1/1 15/1/1
f 22/3/1 15/3/1 21/3/1
f 22/1/1 17/1/1 16/1/1
f 23/1/1 17/1/1 22/1/1
f 24/3/1 18/3/1 17/3/1
f 24/1/1 17/1/1 23/1/1
f 25/1/1 20/1/1 19/1/1
f 25/3/1 18/3/1 24/3/1
f 25/1/1 19/1/1 18/1/1
f 26/1/1 20/1/1 25/1/1
f 27/3/1 11/3/1 20/3/1
f 27/1/1 20/1/1 26/1/1
f 28/3/1 11/3/1 27/3/1
f 29/1/1 23/1/1 22/1/1
f 29/3/1 21/3/1 10/3/1
f 29/1/1 22/1/1 21/1/1
f 30/3/1 26/3/1 25/3/1
f 30/1/1 23/1/1 29/1/1
f 30/3/1 24/3/1 23/3/1
f 30/3/1 25/3/1 24/3/1
f 31/1/1 28/1/1 27/1/1
f 31/3/1 26/3/1 30/3/1
f 31/1/1 27/1/1 26/1/1
f 32/3/1 11/3/1 28/3/1
f 32/1/1 28/1/1 31/1/1
f 33/3/1 31/3/1 30/3/1
f 33/3/1 30/3/1 29/3/1
f 33/3/1 32/3/1 31/3/1
f 34/3/1 32/3/1 33/3/1
f 35/3/1 33/3/1 29/3/1
f 36/1/1 34/1/1 33/1/1
f 36/3/1 33/3/1 35/3/1
f 37/1/1 34/1/1 36/1/1
f 38/1/1 34/1/1 37/1/1
f 39/3/1 32/3/1 34/3/1
f 39/1/1 34/1/1 38/1/1
f 40/3/1 32/3/1 39/3/1
f 41/3/1 29/3/1 10/3/1
f 41/3/1 35/3/1 29/3/1
f 42/1/1 36/1/1 35/1/1
f 42/3/1 35/3/1 41/3/1
f 42/1/1 37/1/1 36/1/1
f 43/1/1 37/1/1 42/1/1
f 44/3/1 38/3/1 37/3/1
f 44/1/1 37/1/1 43/1/1
f 45/1/1 40/1/1 39/1/1
f 45/3/1 38/3/1 44/3/1
f 45/1/1 39/1/1 38/1/1
f 46/1/1 40/1/1 45/1/1
f 47/3/1 32/3/1 40/3/1
f 47/1/1 40/1/1 46/1/1
f 48/3/1 11/3/1 32/3/1
f 48/3/1 32/3/1 47/3/1
f 49/1/1 43/1/1 42/1/1
f 49/3/1 41/3/1 10/3/1
f 49/1/1 42/1/1 41/1/1
f 50/3/1 46/3/1 45/3/1
f 50/1/1 43/1/1 49/1/1
f 50/3/1 44/3/1 43/3/1
f 50/3/1 45/3/1 44/3/1
f 51/1/1 47/1/1 46/1/1
f 51/3/1 46/3/1 50/3/1
f 51/1/1 48/1/1 47/1/1
f 52/3/1 11/3/1 48/3/1
f 52/1/1 48/1/1 51/1/1
f 53/3/1 50/3/1 49/3/1
f 53/3/1 51/3/1 50/3/1
f 53/3/1 52/3/1 51/3/1
f 54/3/1 52/3/1 53/3/1
f 55/3/1 53/3/1 49/3/1
f 56/1/1 54/1/1 53/1/1
f 56/3/1 53/3/1 55/3/1
f 57/1/1 54/1/1 56/1/1
f 58/1/1 54/1/1 57/1/1
f 59/3/1 52/3/1 54/3/1
f 59/1/1 54/1/1 58/1/1
f 60/3/1 52/3/1 59/3/1
f 61/3/1 49/3/1 10/3/1
f 61/3/1 55/3/1 49/3/1
f 62/1/1 56/1/1 55/1/1
f 62/3/1 55/3/1 61/3/1
f 62/1/1 57/1/1 56/1/1
f 63/1/1 57/1/1 62/1/1
f 64/3/1 58/3/1 57/3/1
f 64/1/1 57/1/1 63/1/1
f 65/1/1 60/1/1 59/1/1
f 65/3/1 58/3/1 64/3/1
f 65/1/1 59/1/1 58/1/1
f 66/1/1 60/1/1 65/1/1
f 67/3/1 52/3/1 60/3/1
f 67/1/1 60/1/1 66/1/1
f 68/3/1 11/3/1 52/3/1
f 68/3/1 52/3/1 67/3/1
f 69/1/1 63/1/1 62/1/1
f 69/3/1 61/3/1 10/3/1
f 69/1/1 62/1/1 61/1/1
f 70/3/1 66/3/1 65/3/1
f 70/1/1 63/1/1 69/1/1
f 70/3/1 64/3/1 63/3/1
f 70/3/1 65/3/1 64/3/1
f 71/1/1 67/1/1 66/1/1
f 71/3/1 66/3/1 70/3/1
f 71/1/1 68/1/1 67/1/1
f 72/3/1 11/3/1 68/3/1
f 72/1/1 68/1/1 71/1/1
f 73/3/1 70/3/1 69/3/1
f 73/3/1 69/3/1 10/3/1
f 73/3/1 72/3/1 71/3/1
f 73/3/1 71/3/1 70/3/1
f 74/3/1 11/3/1 72/3/1
f 74/3/1 72/3/1 73/3/1
f 79/4/1 76/4/1 75/4/1
f 80/4/1 76/4/1 79/4/1
f 83/3/1 78/3/1 77/3/1
f 84/3/1 78/3/1 83/3/1
f 87/3/1 82/3/1 81/3/1
f 88/3/1 82/3/1 87/3/1
f 89/3/1 85/3/1 84/3/1
f 90/3/1 87/3/1 86/3/1
f 91/3/1 89/3/1 84/3/1
f 91/3/1 90/3/1 89/3/1
f 92/3/1 87/3/1 90/3/1
f 92/3/1 90/3/1 91/3/1
f 95/4/1 94/4/1 93/4/1
f 96/4/1 94/4/1 95/4/1
f 99/3/1 98/3/1 97/3/1
f 100/3/1 98/3/1 99/3/1
f 103/3/1 102/3/1 101/3/1
f 104/3/1 102/3/1 103/3/1
f 107/3/1 106/3/1 105/3/1
f 108/3/1 106/3/1 107/3/1
f 109/4/2 110/4/2 111/4/2
f 111/4/2 110/4/2 112/4/2
f 111/4/2 112/4/2 113/4/2
f 113/4/2 112/4/2 114/4/2
f 115/4/2 116/4/2 117/4/2
f 117/4/2 116/4/2 118/4/2
f 119/3/2 120/3/2 123/3/2
f 123/3/2 120/3/2 124/3/2
f 121/3/2 122/3/2 127/3/2
f 127/3/2 122/3/2 128/3/2
f 124/3/2 125/3/2 129/3/2
f 129/3/2 125/3/2 130/3/2
f 126/3/2 127/3/2 131/3/2
f 131/3/2 127/3/2 132/3/2
f 130/3/2 131/3/2 133/3/2
f 133/3/2 131/3/2 134/3/2
f 135/3/2 136/3/2 139/3/2
f 139/3/2 136/3/2 140/3/2
f 137/3/2 138/3/2 141/3/2
f 141/3/2 138/3/2 142/3/2
f 140/3/2 141/3/2 143/3/2
f 143/3/2 141/3/2 144/3/2
f 140/3/2 143/3/2 145/3/2
f 144/3/2 141/3/2 146/3/2
f 140/3/2 145/3/2 147/3/2
f 145/3/2 146/3/2 147/3/2
f 146/3/2 141/3/2 148/3/2
f 147/3/2 146/3/2 148/3/2
f 149/3/2 150/3/2 151/3/2
f 151/3/2 150/3/2 152/3/2
f 153/2/2 154/2/2 155/2/2
f 155/2/2 154/2/2 156/2/2
f 159/3/3 158/3/3 157/3/3
f 160/3/3 158/3/3 159/3/3
f 163/3/3 162/3/3 161/3/3
f 164/3/3 162/3/3 163/3/3
f 166/3/3 165/3/3 164/3/3
f 169/3/3 166/3/3 164/3/3
f 169/3/3 167/3/3 166/3/3
f 170/3/3 167/3/3 169/3/3
f 171/3/3 169/3/3 168/3/3
f 172/3/3 169/3/3 171/3/3
f 175/3/3 174/3/3 173/3/3
f 176/3/3 174/3/3 175/3/3
f 180/3/3 177/3/3 176/3/3
f 181/3/3 177/3/3 180/3/3
f 183/4/3 179/4/3 178/4/3
f 186/4/3 183/4/3 182/4/3
f 186/4/3 179/4/3 183/4/3
f 187/4/3 179/4/3 186/4/3
f 188/4/3 186/4/3 182/4/3
f 189/4/3 186/4/3 188/4/3
f 191/3/3 185/3/3 184/3/3
f 192/3/3 185/3/3 191/3/3
f 194/3/3 191/3/3 190/3/3
f 195/3/3 191/3/3 194/3/3
f 196/3/3 194/3/3 193/3/3
f 197/3/3 194/3/3 196/3/3
f 200/2/3 199/2/3 198/2/3
f 201/2/3 199/2/3 200/2/3
f 204/3/3 203/3/3 202/3/3
f 205/3/3 203/3/3 204/3/3
f 206/3/4 207/3/4 208/3/4
f 208/3/4 207/3/4 209/3/4
f 210/2/4 211/2/4 212/2/4
f 212/2/4 211/2/4 213/2/4
f 214/3/4 215/3/4 216/3/4
f 216/3/4 215/3/4 217/3/4
f 217/3/4 218/3/4 221/3/4
f 221/3/4 218/3/4 222/3/4
f 219/4/4 220/4/4 224/4/4
f 223/4/4 224/4/4 227/4/4
f 224/4/4 220/4/4 227/4/4
f 227/4/4 220/4/4 228/4/4
f 223/4/4 227/4/4 229/4/4
f 229/4/4 227/4/4 230/4/4
f 225/3/4 226/3/4 232/3/4
f 232/3/4 226/3/4 233/3/4
f 231/3/4 232/3/4 235/3/4
f 235/3/4 232/3/4 236/3/4
f 234/3/4 235/3/4 237/3/4
f 237/3/4 235/3/4 238/3/4
f 239/3/4 240/3/4 241/3/4
f 241/3/4 240/3/4 242/3/4
f 242/3/4 243/3/4 244/3/4
f 242/3/4 244/3/4 247/3/4
f 244/3/4 245/3/4 247/3/4
f 247/3/4 245/3/4 248/3/4
f 246/3/4 247/3/4 249/3/4
f 249/3/4 247/3/4 250/3/4
f 251/3/4 252/3/4 253/3/4
f 253/3/4 252/3/4 254/3/4
f 257/4/5 256/4/5 255/4/5
f 258/4/5 256/4/5 257/4/5
f 261/4/5 260/4/5 259/4/5
f 262/4/5 260/4/5 261/4/5
f 266/3/5 264/3/5 263/3/5
f 267/3/5 264/3/5 266/3/5
f 270/3/5 266/3/5 265/3/5
f 270/3/5 268/3/5 267/3/5
f 270/3/5 267/3/5 266/3/5
f 271/3/5 268/3/5 270/3/5
f 272/3/5 268/3/5 271/3/5
f 273/3/5 268/3/5 272/3/5
f 274/3/5 268/3/5 273/3/5
f 276/3/5 270/3/5 269/3/5
f 276/3/5 271/3/5 270/3/5
f 277/3/5 271/3/5 276/3/5
f 278/3/5 271/3/5 277/3/5
f 280/3/5 275/3/5 274/3/5
f 280/3/5 274/3/5 273/3/5
f 281/3/5 275/3/5 280/3/5
f 282/3/5 275/3/5 281/3/5
f 283/3/5 279/3/5 278/3/5
f 283/3/5 278/3/5 277/3/5
f 283/3/5 281/3/5 280/3/5
f 283/3/5 280/3/5 279/3/5
f 284/3/5 281/3/5 283/3/5
f 285/3/5 281/3/5 284/3/5
f 286/3/5 281/3/5 285/3/5
f 287/3/5 285/3/5 284/3/5
f 288/3/5 285/3/5 287/3/5
f 291/5/5 290/5/5 289/5/5
f 292/5/5 290/5/5 291/5/5
f 295/2/5 294/2/5 293/2/5
f 296/2/5 294/2/5 295/2/5
f 297/4/6 298/4/6 299/4/6
f 299/4/6 298/4/6 300/4/6
f 301/3/6 302/3/6 304/3/6
f 304/3/6 302/3/6 305/3/6
f 303/3/6 304/3/6 308/3/6
f 308/3/6 304/3/6 309/3/6
f 305/3/6 306/3/6 310/3/6
f 310/3/6 306/3/6 311/3/6
f 307/3/6 308/3/6 313/3/6
f 313/3/6 308/3/6 314/3/6
f 311/3/6 312/3/6 317/3/6
f 317/3/6 312/3/6 318/3/6
f 314/3/6 315/3/6 319/3/6
f 319/3/6 315/3/6 320/3/6
f 316/3/6 317/3/6 321/3/6
f 321/3/6 317/3/6 322/3/6
f 320/3/6 321/3/6 323/3/6
f 323/3/6 321/3/6 324/3/6
f 325/3/6 326/3/6 327/3/6
f 327/3/6 326/3/6 328/3/6
f 331/2/6 332/2/6 333/2/6
f 333/2/6 332/2/6 334/2/6
f 329/3/6 330/3/6 335/3/6
f 335/3/6 330/3/6 336/3/6
f 337/3/6 338/3/6 339/3/6
f 339/3/6 338/3/6 340/3/6
f 337/3/6 339/3/6 342/3/6
f 340/3/6 341/3/6 343/3/6
f 343/3/6 341/3/6 344/3/6
f 337/3/6 342/3/6 345/3/6
f 342/3/6 343/3/6 345/3/6
f 345/3/6 343/3/6 346/3/6
f 347/3/6 348/3/6 349/3/6
f 349/3/6 348/3/6 350/3/6
