# Blender 3.5.1
# www.blender.org
mtllib Forearm.mtl
o Untitled
v -2.722045 -0.669495 0.700000
v -2.722045 -0.669495 -0.700000
v -2.722045 -0.569495 0.800000
v -2.722045 -0.569495 0.700000
v -2.722045 -0.569495 -0.700000
v -2.722045 -0.569495 -0.800000
v -2.722045 0.630506 0.800000
v -2.722045 0.630506 0.700000
v -2.722045 0.630506 -0.700000
v -2.722045 0.630506 -0.800000
v -2.722045 0.730506 0.700000
v -2.722045 0.730505 -0.700000
v 0.177955 -0.769494 0.700000
v 0.177955 -0.769495 -0.700000
v 0.177955 -0.669495 0.800000
v 0.177955 -0.669495 0.700000
v 0.177955 -0.669495 -0.700000
v 0.177955 -0.669495 -0.800000
v 0.177955 -0.569495 0.900000
v 0.177955 -0.569495 0.800000
v 0.177955 -0.569495 0.700000
v 0.177955 -0.569495 -0.700000
v 0.177955 -0.569495 -0.800000
v 0.177955 -0.569495 -0.900000
v 0.177955 0.630506 0.900000
v 0.177955 0.630506 0.800000
v 0.177955 0.630506 0.700000
v 0.177955 0.630506 -0.700000
v 0.177955 0.630506 -0.800000
v 0.177955 0.630506 -0.900000
v 0.177955 0.730506 0.800000
v 0.177955 0.730506 0.700000
v 0.177955 0.730505 -0.700000
v 0.177955 0.730505 -0.800000
v 0.177955 0.830505 0.700000
v 0.177955 0.830505 -0.700000
v 0.777955 -0.569495 0.700000
v 0.777955 -0.569495 -0.700000
v 0.777955 -0.269494 0.700000
v 0.777955 -0.269495 -0.700000
v -0.322045 -0.569495 0.700000
v -0.322045 -0.569495 -0.700000
v -0.322045 -0.269494 0.700000
v -0.322045 -0.269495 -0.700000
v 0.477955 -0.769494 0.700000
v 0.477955 -0.769495 -0.700000
v 0.477955 -0.669495 0.800000
v 0.477955 -0.669495 0.700000
v 0.477955 -0.669495 -0.700000
v 0.477955 -0.669495 -0.800000
v 0.477955 -0.569495 0.900000
v 0.477955 -0.569495 0.800000
v 0.477955 -0.569495 0.700000
v 0.477955 -0.569495 -0.700000
v 0.477955 -0.569495 -0.800000
v 0.477955 -0.569495 -0.900000
v 0.477955 -0.269494 0.700000
v 0.477955 -0.269495 -0.700000
v 0.477955 0.630506 0.900000
v 0.477955 0.630506 0.800000
v 0.477955 0.630506 0.700000
v 0.477955 0.630506 -0.700000
v 0.477955 0.630506 -0.800000
v 0.477955 0.630506 -0.900000
v 0.477955 0.730506 0.800000
v 0.477955 0.730506 0.700000
v 0.477955 0.730505 -0.700000
v 0.477955 0.730505 -0.800000
v 0.477955 0.830505 0.700000
v 0.477955 0.830505 -0.700000
v 1.677955 0.530506 0.700000
v 1.677955 0.530506 -0.700000
v 1.677955 0.630506 0.700000
v 1.677955 0.630506 -0.700000
v 1.777955 -0.569495 0.700000
v 1.777955 -0.569495 -0.700000
v 1.777955 0.530506 0.700000
v 1.777955 0.530506 -0.700000
v 0.177955 -0.569495 0.900000
v 0.177955 0.630506 0.900000
v 0.477955 -0.569495 0.900000
v 0.477955 0.630506 0.900000
v -2.722045 -0.569495 0.800000
v -2.722045 0.630506 0.800000
v 0.177955 -0.669495 0.800000
v 0.177955 -0.569495 0.800000
v 0.177955 0.630506 0.800000
v 0.177955 0.730506 0.800000
v 0.477955 -0.669495 0.800000
v 0.477955 -0.569495 0.800000
v 0.477955 0.630506 0.800000
v 0.477955 0.730506 0.800000
v -2.722045 -0.669495 0.700000
v -2.722045 -0.569495 0.700000
v -2.722045 0.630506 0.700000
v -2.722045 0.730506 0.700000
v 0.177955 -0.769494 0.700000
v 0.177955 -0.669495 0.700000
v 0.177955 -0.569495 0.700000
v 0.177955 0.630506 0.700000
v 0.177955 0.730506 0.700000
v 0.177955 0.830505 0.700000
v 0.477955 -0.769494 0.700000
v 0.477955 -0.669495 0.700000
v 0.477955 -0.269494 0.700000
v 0.477955 0.630506 0.700000
v 0.477955 0.730506 0.700000
v 0.477955 0.830505 0.700000
v 0.777955 -0.569495 0.700000
v 0.777955 -0.269494 0.700000
v 1.677955 0.530506 0.700000
v 1.677955 0.630506 0.700000
v 1.777955 -0.569495 0.700000
v 1.777955 0.530506 0.700000
v -0.322045 -0.569495 -0.700000
v -0.322045 -0.269495 -0.700000
v 0.477955 -0.569495 -0.700000
v 0.477955 -0.269495 -0.700000
v -0.322045 -0.569495 0.700000
v -0.322045 -0.269494 0.700000
v 0.477955 -0.569495 0.700000
v 0.477955 -0.269494 0.700000
v -2.722045 -0.669495 -0.700000
v -2.722045 -0.569495 -0.700000
v -2.722045 0.630506 -0.700000
v -2.722045 0.730505 -0.700000
v 0.177955 -0.769495 -0.700000
v 0.177955 -0.669495 -0.700000
v 0.177955 -0.569495 -0.700000
v 0.177955 0.630506 -0.700000
v 0.177955 0.730505 -0.700000
v 0.177955 0.830505 -0.700000
v 0.477955 -0.769495 -0.700000
v 0.477955 -0.669495 -0.700000
v 0.477955 -0.269495 -0.700000
v 0.477955 0.630506 -0.700000
v 0.477955 0.730505 -0.700000
v 0.477955 0.830505 -0.700000
v 0.777955 -0.569495 -0.700000
v 0.777955 -0.269495 -0.700000
v 1.677955 0.530506 -0.700000
v 1.677955 0.630506 -0.700000
v 1.777955 -0.569495 -0.700000
v 1.777955 0.530506 -0.700000
v -2.722045 -0.569495 -0.800000
v -2.722045 0.630506 -0.800000
v 0.177955 -0.669495 -0.800000
v 0.177955 -0.569495 -0.800000
v 0.177955 0.630506 -0.800000
v 0.177955 0.730505 -0.800000
v 0.477955 -0.669495 -0.800000
v 0.477955 -0.569495 -0.800000
v 0.477955 0.630506 -0.800000
v 0.477955 0.730505 -0.800000
v 0.177955 -0.569495 -0.900000
v 0.177955 0.630506 -0.900000
v 0.477955 -0.569495 -0.900000
v 0.477955 0.630506 -0.900000
v 0.177955 -0.769494 0.700000
v 0.477955 -0.769494 0.700000
v 0.177955 -0.769495 -0.700000
v 0.477955 -0.769495 -0.700000
v 0.177955 -0.669495 0.800000
v 0.477955 -0.669495 0.800000
v -2.722045 -0.669495 0.700000
v 0.177955 -0.669495 0.700000
v 0.477955 -0.669495 0.700000
v -2.722045 -0.669495 -0.700000
v 0.177955 -0.669495 -0.700000
v 0.477955 -0.669495 -0.700000
v 0.177955 -0.669495 -0.800000
v 0.477955 -0.669495 -0.800000
v 0.177955 -0.569495 0.900000
v 0.477955 -0.569495 0.900000
v -2.722045 -0.569495 0.800000
v 0.177955 -0.569495 0.800000
v 0.477955 -0.569495 0.800000
v -2.722045 -0.569495 0.700000
v 0.177955 -0.569495 0.700000
v 0.777955 -0.569495 0.700000
v 1.777955 -0.569495 0.700000
v -2.722045 -0.569495 -0.700000
v 0.177955 -0.569495 -0.700000
v 0.777955 -0.569495 -0.700000
v 1.777955 -0.569495 -0.700000
v -2.722045 -0.569495 -0.800000
v 0.177955 -0.569495 -0.800000
v 0.477955 -0.569495 -0.800000
v 0.177955 -0.569495 -0.900000
v 0.477955 -0.569495 -0.900000
v -0.322045 -0.269494 0.700000
v 0.477955 -0.269494 0.700000
v 0.777955 -0.269494 0.700000
v -0.322045 -0.269495 -0.700000
v 0.477955 -0.269495 -0.700000
v 0.777955 -0.269495 -0.700000
v -0.322045 -0.569495 0.700000
v 0.477955 -0.569495 0.700000
v -0.322045 -0.569495 -0.700000
v 0.477955 -0.569495 -0.700000
v 1.677955 0.530506 0.700000
v 1.777955 0.530506 0.700000
v 1.677955 0.530506 -0.700000
v 1.777955 0.530506 -0.700000
v 0.177955 0.630506 0.900000
v 0.477955 0.630506 0.900000
v -2.722045 0.630506 0.800000
v 0.177955 0.630506 0.800000
v 0.477955 0.630506 0.800000
v -2.722045 0.630506 0.700000
v 0.177955 0.630506 0.700000
v 0.477955 0.630506 0.700000
v 1.677955 0.630506 0.700000
v -2.722045 0.630506 -0.700000
v 0.177955 0.630506 -0.700000
v 0.477955 0.630506 -0.700000
v 1.677955 0.630506 -0.700000
v -2.722045 0.630506 -0.800000
v 0.177955 0.630506 -0.800000
v 0.477955 0.630506 -0.800000
v 0.177955 0.630506 -0.900000
v 0.477955 0.630506 -0.900000
v 0.177955 0.730506 0.800000
v 0.477955 0.730506 0.800000
v -2.722045 0.730506 0.700000
v 0.177955 0.730506 0.700000
v 0.477955 0.730506 0.700000
v -2.722045 0.730505 -0.700000
v 0.177955 0.730505 -0.700000
v 0.477955 0.730505 -0.700000
v 0.177955 0.730505 -0.800000
v 0.477955 0.730505 -0.800000
v 0.177955 0.830505 0.700000
v 0.477955 0.830505 0.700000
v 0.177955 0.830505 -0.700000
v 0.477955 0.830505 -0.700000
vn -1.0000 -0.0000 -0.0000
vn 1.0000 -0.0000 -0.0000
vn -0.0000 -0.0000 1.0000
vn -0.0000 -0.0000 -1.0000
vn -0.0000 -1.0000 -0.0000
vn -0.0000 1.0000 -0.0000
vt 0.974609 0.500000
vt 0.974609 0.500000
vt 0.974609 0.500000
vt 0.974609 0.500000
vt 0.974609 0.500000
vt 0.974609 0.500000
vt 0.974609 0.500000
vt 0.974609 0.500000
vt 0.974609 0.500000
vt 0.974609 0.500000
vt 0.974609 0.500000
vt 0.974609 0.500000
vt 0.974609 0.500000
vt 0.974609 0.500000
vt 0.974609 0.500000
vt 0.974609 0.500000
vt 0.974609 0.500000
vt 0.974609 0.500000
vt 0.974609 0.500000
vt 0.974609 0.500000
vt 0.974609 0.500000
vt 0.974609 0.500000
vt 0.974609 0.500000
vt 0.974609 0.500000
vt 0.974609 0.500000
vt 0.974609 0.500000
vt 0.974609 0.500000
vt 0.974609 0.500000
vt 0.974609 0.500000
vt 0.974609 0.500000
vt 0.974609 0.500000
vt 0.974609 0.500000
vt 0.974609 0.500000
vt 0.974609 0.500000
vt 0.974609 0.500000
vt 0.974609 0.500000
vt 0.978516 0.500000
vt 0.978516 0.500000
vt 0.978516 0.500000
vt 0.978516 0.500000
vt 0.986328 0.500000
vt 0.986328 0.500000
vt 0.986328 0.500000
vt 0.986328 0.500000
vt 0.974609 0.500000
vt 0.974609 0.500000
vt 0.974609 0.500000
vt 0.974609 0.500000
vt 0.974609 0.500000
vt 0.974609 0.500000
vt 0.974609 0.500000
vt 0.974609 0.500000
vt 0.974609 0.500000
vt 0.974609 0.500000
vt 0.974609 0.500000
vt 0.974609 0.500000
vt 0.974609 0.500000
vt 0.974609 0.500000
vt 0.974609 0.500000
vt 0.974609 0.500000
vt 0.974609 0.500000
vt 0.974609 0.500000
vt 0.974609 0.500000
vt 0.974609 0.500000
vt 0.974609 0.500000
vt 0.974609 0.500000
vt 0.974609 0.500000
vt 0.974609 0.500000
vt 0.974609 0.500000
vt 0.974609 0.500000
vt 0.978516 0.500000
vt 0.978516 0.500000
vt 0.978516 0.500000
vt 0.978516 0.500000
vt 0.978516 0.500000
vt 0.978516 0.500000
vt 0.978516 0.500000
vt 0.978516 0.500000
vt 0.974609 0.500000
vt 0.974609 0.500000
vt 0.974609 0.500000
vt 0.974609 0.500000
vt 0.974609 0.500000
vt 0.974609 0.500000
vt 0.974609 0.500000
vt 0.974609 0.500000
vt 0.974609 0.500000
vt 0.974609 0.500000
vt 0.974609 0.500000
vt 0.974609 0.500000
vt 0.974609 0.500000
vt 0.974609 0.500000
vt 0.974609 0.500000
vt 0.974609 0.500000
vt 0.974609 0.500000
vt 0.974609 0.500000
vt 0.974609 0.500000
vt 0.974609 0.500000
vt 0.974609 0.500000
vt 0.974609 0.500000
vt 0.974609 0.500000
vt 0.974609 0.500000
vt 0.974609 0.500000
vt 0.974609 0.500000
vt 0.978516 0.500000
vt 0.978516 0.500000
vt 0.974609 0.500000
vt 0.974609 0.500000
vt 0.978516 0.500000
vt 0.978516 0.500000
vt 0.978516 0.500000
vt 0.978516 0.500000
vt 0.978516 0.500000
vt 0.978516 0.500000
vt 0.974609 0.500000
vt 0.974609 0.500000
vt 0.974609 0.500000
vt 0.974609 0.500000
vt 0.974609 0.500000
vt 0.974609 0.500000
vt 0.974609 0.500000
vt 0.974609 0.500000
vt 0.974609 0.500000
vt 0.974609 0.500000
vt 0.974609 0.500000
vt 0.974609 0.500000
vt 0.974609 0.500000
vt 0.974609 0.500000
vt 0.974609 0.500000
vt 0.974609 0.500000
vt 0.974609 0.500000
vt 0.974609 0.500000
vt 0.974609 0.500000
vt 0.974609 0.500000
vt 0.978516 0.500000
vt 0.978516 0.500000
vt 0.974609 0.500000
vt 0.974609 0.500000
vt 0.978516 0.500000
vt 0.978516 0.500000
vt 0.978516 0.500000
vt 0.978516 0.500000
vt 0.978516 0.500000
vt 0.978516 0.500000
vt 0.974609 0.500000
vt 0.974609 0.500000
vt 0.974609 0.500000
vt 0.974609 0.500000
vt 0.974609 0.500000
vt 0.974609 0.500000
vt 0.974609 0.500000
vt 0.974609 0.500000
vt 0.974609 0.500000
vt 0.974609 0.500000
vt 0.974609 0.500000
vt 0.974609 0.500000
vt 0.974609 0.500000
vt 0.974609 0.500000
vt 0.974609 0.500000
vt 0.974609 0.500000
vt 0.974609 0.500000
vt 0.974609 0.500000
vt 0.974609 0.500000
vt 0.974609 0.500000
vt 0.974609 0.500000
vt 0.974609 0.500000
vt 0.974609 0.500000
vt 0.974609 0.500000
vt 0.974609 0.500000
vt 0.974609 0.500000
vt 0.974609 0.500000
vt 0.974609 0.500000
vt 0.974609 0.500000
vt 0.974609 0.500000
vt 0.974609 0.500000
vt 0.974609 0.500000
vt 0.974609 0.500000
vt 0.974609 0.500000
vt 0.974609 0.500000
vt 0.978516 0.500000
vt 0.978516 0.500000
vt 0.974609 0.500000
vt 0.974609 0.500000
vt 0.978516 0.500000
vt 0.978516 0.500000
vt 0.974609 0.500000
vt 0.974609 0.500000
vt 0.974609 0.500000
vt 0.974609 0.500000
vt 0.974609 0.500000
vt 0.978516 0.500000
vt 0.978516 0.500000
vt 0.978516 0.500000
vt 0.978516 0.500000
vt 0.978516 0.500000
vt 0.978516 0.500000
vt 0.974609 0.500000
vt 0.974609 0.500000
vt 0.974609 0.500000
vt 0.974609 0.500000
vt 0.978516 0.500000
vt 0.978516 0.500000
vt 0.978516 0.500000
vt 0.978516 0.500000
vt 0.974609 0.500000
vt 0.974609 0.500000
vt 0.974609 0.500000
vt 0.974609 0.500000
vt 0.974609 0.500000
vt 0.974609 0.500000
vt 0.974609 0.500000
vt 0.978516 0.500000
vt 0.978516 0.500000
vt 0.974609 0.500000
vt 0.974609 0.500000
vt 0.978516 0.500000
vt 0.978516 0.500000
vt 0.974609 0.500000
vt 0.974609 0.500000
vt 0.974609 0.500000
vt 0.974609 0.500000
vt 0.974609 0.500000
vt 0.974609 0.500000
vt 0.974609 0.500000
vt 0.974609 0.500000
vt 0.974609 0.500000
vt 0.974609 0.500000
vt 0.974609 0.500000
vt 0.974609 0.500000
vt 0.974609 0.500000
vt 0.974609 0.500000
vt 0.974609 0.500000
vt 0.974609 0.500000
vt 0.974609 0.500000
vt 0.974609 0.500000
vt 0.974609 0.500000
s 0
usemtl palette.002
f 4/4/1 2/2/1 1/1/1
f 5/5/1 2/2/1 4/4/1
f 7/7/1 4/4/1 3/3/1
f 7/7/1 6/6/1 5/5/1
f 7/7/1 5/5/1 4/4/1
f 8/8/1 6/6/1 7/7/1
f 9/9/1 6/6/1 8/8/1
f 10/10/1 6/6/1 9/9/1
f 11/11/1 9/9/1 8/8/1
f 12/12/1 9/9/1 11/11/1
f 16/16/1 14/14/1 13/13/1
f 17/17/1 14/14/1 16/16/1
f 20/20/1 16/16/1 15/15/1
f 21/21/1 16/16/1 20/20/1
f 22/22/1 18/18/1 17/17/1
f 23/23/1 18/18/1 22/22/1
f 25/25/1 20/20/1 19/19/1
f 26/26/1 20/20/1 25/25/1
f 29/29/1 24/24/1 23/23/1
f 30/30/1 24/24/1 29/29/1
f 31/31/1 27/27/1 26/26/1
f 32/32/1 27/27/1 31/31/1
f 33/33/1 29/29/1 28/28/1
f 34/34/1 29/29/1 33/33/1
f 35/35/1 33/33/1 32/32/1
f 36/36/1 33/33/1 35/35/1
f 39/39/1 38/38/1 37/37/1
f 40/40/1 38/38/1 39/39/1
f 41/41/2 42/42/2 43/43/2
f 43/43/2 42/42/2 44/44/2
f 45/45/2 46/46/2 48/48/2
f 48/48/2 46/46/2 49/49/2
f 47/47/2 48/48/2 52/52/2
f 49/49/2 50/50/2 52/52/2
f 48/48/2 49/49/2 52/52/2
f 52/52/2 50/50/2 53/53/2
f 53/53/2 50/50/2 54/54/2
f 54/54/2 50/50/2 55/55/2
f 51/51/2 52/52/2 57/57/2
f 52/52/2 53/53/2 57/57/2
f 55/55/2 56/56/2 58/58/2
f 54/54/2 55/55/2 58/58/2
f 51/51/2 57/57/2 59/59/2
f 59/59/2 57/57/2 60/60/2
f 60/60/2 57/57/2 61/61/2
f 58/58/2 56/56/2 62/62/2
f 62/62/2 56/56/2 63/63/2
f 63/63/2 56/56/2 64/64/2
f 60/60/2 61/61/2 65/65/2
f 62/62/2 63/63/2 65/65/2
f 61/61/2 62/62/2 65/65/2
f 65/65/2 63/63/2 66/66/2
f 66/66/2 63/63/2 67/67/2
f 67/67/2 63/63/2 68/68/2
f 66/66/2 67/67/2 69/69/2
f 69/69/2 67/67/2 70/70/2
f 71/71/2 72/72/2 73/73/2
f 73/73/2 72/72/2 74/74/2
f 75/75/2 76/76/2 77/77/2
f 77/77/2 76/76/2 78/78/2
f 81/81/3 80/80/3 79/79/3
f 82/82/3 80/80/3 81/81/3
f 86/86/3 84/84/3 83/83/3
f 87/87/3 84/84/3 86/86/3
f 89/89/3 86/86/3 85/85/3
f 90/90/3 86/86/3 89/89/3
f 91/91/3 88/88/3 87/87/3
f 92/92/3 88/88/3 91/91/3
f 98/98/3 94/94/3 93/93/3
f 99/99/3 94/94/3 98/98/3
f 100/100/3 96/96/3 95/95/3
f 101/101/3 96/96/3 100/100/3
f 103/103/3 98/98/3 97/97/3
f 104/104/3 98/98/3 103/103/3
f 107/107/3 102/102/3 101/101/3
f 108/108/3 102/102/3 107/107/3
f 110/110/3 106/106/3 105/105/3
f 111/111/3 106/106/3 110/110/3
f 111/111/3 110/110/3 109/109/3
f 112/112/3 106/106/3 111/111/3
f 113/113/3 111/111/3 109/109/3
f 114/114/3 111/111/3 113/113/3
f 117/117/3 116/116/3 115/115/3
f 118/118/3 116/116/3 117/117/3
f 119/119/4 120/120/4 121/121/4
f 121/121/4 120/120/4 122/122/4
f 123/123/4 124/124/4 128/128/4
f 128/128/4 124/124/4 129/129/4
f 125/125/4 126/126/4 130/130/4
f 130/130/4 126/126/4 131/131/4
f 127/127/4 128/128/4 133/133/4
f 133/133/4 128/128/4 134/134/4
f 131/131/4 132/132/4 137/137/4
f 137/137/4 132/132/4 138/138/4
f 135/135/4 136/136/4 140/140/4
f 140/140/4 136/136/4 141/141/4
f 139/139/4 140/140/4 141/141/4
f 141/141/4 136/136/4 142/142/4
f 139/139/4 141/141/4 143/143/4
f 143/143/4 141/141/4 144/144/4
f 145/145/4 146/146/4 148/148/4
f 148/148/4 146/146/4 149/149/4
f 147/147/4 148/148/4 151/151/4
f 151/151/4 148/148/4 152/152/4
f 149/149/4 150/150/4 153/153/4
f 153/153/4 150/150/4 154/154/4
f 155/155/4 156/156/4 157/157/4
f 157/157/4 156/156/4 158/158/4
f 161/161/5 160/160/5 159/159/5
f 162/162/5 160/160/5 161/161/5
f 166/166/5 164/164/5 163/163/5
f 167/167/5 164/164/5 166/166/5
f 168/168/5 166/166/5 165/165/5
f 169/169/5 166/166/5 168/168/5
f 171/171/5 170/170/5 169/169/5
f 172/172/5 170/170/5 171/171/5
f 176/176/5 174/174/5 173/173/5
f 177/177/5 174/174/5 176/176/5
f 178/178/5 176/176/5 175/175/5
f 179/179/5 176/176/5 178/178/5
f 184/184/5 181/181/5 180/180/5
f 185/185/5 181/181/5 184/184/5
f 186/186/5 183/183/5 182/182/5
f 187/187/5 183/183/5 186/186/5
f 189/189/5 188/188/5 187/187/5
f 190/190/5 188/188/5 189/189/5
f 194/194/5 192/192/5 191/191/5
f 194/194/5 193/193/5 192/192/5
f 195/195/5 193/193/5 194/194/5
f 196/196/5 193/193/5 195/195/5
f 197/197/6 198/198/6 199/199/6
f 199/199/6 198/198/6 200/200/6
f 201/201/6 202/202/6 203/203/6
f 203/203/6 202/202/6 204/204/6
f 205/205/6 206/206/6 208/208/6
f 208/208/6 206/206/6 209/209/6
f 207/207/6 208/208/6 210/210/6
f 210/210/6 208/208/6 211/211/6
f 212/212/6 213/213/6 216/216/6
f 216/216/6 213/213/6 217/217/6
f 214/214/6 215/215/6 218/218/6
f 218/218/6 215/215/6 219/219/6
f 219/219/6 220/220/6 221/221/6
f 221/221/6 220/220/6 222/222/6
f 223/223/6 224/224/6 226/226/6
f 226/226/6 224/224/6 227/227/6
f 225/225/6 226/226/6 228/228/6
f 228/228/6 226/226/6 229/229/6
f 229/229/6 230/230/6 231/231/6
f 231/231/6 230/230/6 232/232/6
f 233/233/6 234/234/6 235/235/6
f 235/235/6 234/234/6 236/236/6
